<svg width="23" height="26" viewBox="0 0 23 26" fill="none" xmlns="http://www.w3.org/2000/svg">
<path fill-rule="evenodd" clip-rule="evenodd" d="M16.8267 7.4815C15.7597 8.28135 14.6939 8.86513 13.8563 9.26172C14.4685 9.59019 15.1426 9.66229 15.72 9.53879C16.0243 9.47397 16.2995 9.35402 16.52 9.18927C16.7235 9.03682 16.8783 8.8452 16.9604 8.62489C17.0763 8.31229 17.0517 7.92515 16.8267 7.4815ZM15.1103 13.9333L14.0015 13.3252C13.8943 13.2867 13.8026 13.2169 13.7397 13.1259C13.6767 13.0349 13.6457 12.9274 13.6511 12.8186C13.7527 10.7779 13.1724 9.87541 12.3896 9.30878C12.1088 9.10581 11.8023 9.00389 11.4999 9.00389C11.1976 9.00389 10.8911 9.10581 10.6103 9.30878C9.82759 9.87541 9.2473 10.7779 9.34888 12.8186C9.35426 12.9274 9.32325 13.0349 9.26029 13.1259C9.19734 13.2169 9.10566 13.2867 8.99841 13.3252L7.88966 13.9333C10.0099 15.0618 10.6843 17.0958 11.3618 19.1396C11.4077 19.2779 11.4536 19.4163 11.4999 19.5544C11.5463 19.4161 11.5923 19.2776 11.6382 19.1391C12.3158 17.0955 12.9901 15.0617 15.1103 13.9333ZM15.1814 0.72852C14.0663 0.268927 12.7815 0.0326733 11.4999 0C10.2184 0.0326733 8.9336 0.268927 7.81847 0.72852C7.04633 1.04719 6.32584 1.46813 5.67345 1.97149C5.37892 2.19873 5.13632 2.41835 4.86899 2.67098C4.14823 2.69464 3.09489 1.93431 2.60596 1.22287C3.44756 3.8428 7.28792 6.93671 9.94679 8.12058C9.94789 8.12023 9.94862 8.11945 9.94944 8.11902C10.4266 7.77305 10.9632 7.60006 11.4999 7.60006C12.0367 7.60006 12.5734 7.77305 13.0505 8.11902C13.051 8.11932 13.0514 8.11965 13.0519 8.11996C13.0523 8.12018 13.0527 8.1204 13.0532 8.12058C15.7119 6.93671 19.5524 3.8428 20.394 1.22287C19.905 1.93431 18.8516 2.69464 18.1309 2.67098C17.8636 2.41826 17.621 2.19873 17.3264 1.97149C16.674 1.46813 15.9535 1.04719 15.1814 0.72852ZM6.17324 7.4815C7.24018 8.28135 8.30603 8.86513 9.14353 9.26172C8.53138 9.59019 7.85735 9.66229 7.27998 9.53879C6.97568 9.47397 6.70041 9.35402 6.47991 9.18927C6.27647 9.03682 6.12167 8.8452 6.03944 8.62489C5.92362 8.31229 5.94826 7.92515 6.17324 7.4815ZM19.5166 4.75946C19.1004 5.31543 18.5828 5.93847 17.9954 6.50137L17.9955 6.50146L18.1789 6.86329C18.5353 7.56616 18.6534 8.35188 18.3756 9.09921C18.1967 9.58055 17.87 9.99335 17.449 10.3085C17.0402 10.6145 16.5562 10.8208 16.0495 10.9291C15.7195 10.9996 15.3833 11.0287 15.0492 11.0188C15.1272 11.4383 15.1612 11.8735 15.1634 12.3169L18.1447 13.9519L15.8442 15.1764C15.6603 15.2743 15.4852 15.3865 15.3208 15.5118C13.7738 16.8306 12.73 20.2561 11.9725 22.7423C11.8012 23.3043 11.6446 23.8183 11.5001 24.2491C11.3557 23.8185 11.1991 23.3047 11.0279 22.7429C10.2704 20.2567 9.22653 16.8307 7.67944 15.5118C7.51502 15.3865 7.33998 15.2743 7.1561 15.1764L4.85556 13.9519L7.83679 12.3169C7.83898 11.8735 7.87303 11.4383 7.95097 11.0188C7.61692 11.0287 7.28069 10.9996 6.95065 10.9291C6.44402 10.8208 5.9601 10.6145 5.55121 10.3085C5.1301 9.99335 4.80344 9.58055 4.62446 9.09921C4.34682 8.35188 4.46483 7.56607 4.82124 6.86329L5.00469 6.50146C4.41719 5.93847 3.89969 5.31551 3.4835 4.75955L3.27221 5.13733C2.59152 6.43005 2.23803 7.71765 2.23803 9.16681L2.23949 11.4662L2.22671 12.6583C2.17733 15.5846 1.51052 18.5454 0 21.255L3.16049 18.8351L5.39669 22.2809L7.74589 20.1808L11.5 25.9657L15.2541 20.1808L17.6034 22.2808L19.8396 18.835L23 21.2549C21.4895 18.5454 20.8227 15.5846 20.7734 12.6582L20.7606 11.4662L20.7621 9.16672C20.7621 7.71765 20.4085 6.43005 19.728 5.13724L19.5166 4.75946Z" fill="white"/>
</svg>
