<svg width="27" height="23" viewBox="0 0 27 23" fill="none" xmlns="http://www.w3.org/2000/svg">
<path d="M23.2446 13.7707C24.5868 13.7707 25.6749 12.6826 25.6749 11.3405C25.6749 9.9983 24.5868 8.91025 23.2446 8.91025" stroke="white" stroke-width="2"/>
<path d="M3.43018 13.7707C2.088 13.7707 0.999953 12.6826 0.999953 11.3405C0.999953 9.9983 2.088 8.91025 3.43018 8.91025" stroke="white" stroke-width="2"/>
<path fill-rule="evenodd" clip-rule="evenodd" d="M13.3374 22.6811C19.6006 22.6811 24.6779 17.6037 24.6779 11.3405C24.6779 5.07733 19.6006 0 13.3374 0C7.07416 0 1.99683 5.07733 1.99683 11.3405C1.99683 17.6037 7.07416 22.6811 13.3374 22.6811ZM13.337 8.16348C12.1488 7.16796 10.5327 6.48041 9.28733 6.48041C7.05037 6.48041 5.23696 8.29383 5.23696 10.5308C5.23696 12.7677 7.05037 14.5812 9.28733 14.5812L9.3409 14.5809C9.30477 14.8618 9.28626 15.1339 9.28626 15.3903C9.28626 17.6272 11.0997 19.4406 13.3366 19.4406C15.5736 19.4406 17.387 17.6272 17.387 15.3903C17.387 15.1337 17.3578 14.8614 17.3028 14.5804C17.331 14.5808 17.359 14.581 17.3869 14.581C19.6238 14.581 21.4372 12.7676 21.4372 10.5307C21.4372 8.29369 19.6238 6.48028 17.3869 6.48028C16.1415 6.48028 14.5252 7.16789 13.337 8.16348Z" fill="white"/>
<circle cx="9.69241" cy="10.9354" r="1.21511" fill="white"/>
<circle cx="16.9824" cy="10.9354" r="1.21511" fill="white"/>
</svg>
