<svg width="20" height="20" viewBox="0 0 20 20" fill="none" xmlns="http://www.w3.org/2000/svg">
<path fill-rule="evenodd" clip-rule="evenodd" d="M13 14H12L11.4 14.8L10 16.6667L8.6 14.8L8 14H7H2V2H18V14H13ZM18 16H13L10.8 18.9333C10.4 19.4667 9.6 19.4667 9.2 18.9333L7 16H2C0.89543 16 0 15.1046 0 14V2C0 0.895431 0.895431 0 2 0H18C19.1046 0 20 0.895431 20 2V14C20 15.1046 19.1046 16 18 16ZM6.5 7C6.22386 7 6 7.22386 6 7.5V8.5C6 8.77614 6.22386 9 6.5 9H13.5C13.7761 9 14 8.77614 14 8.5V7.5C14 7.22386 13.7761 7 13.5 7H6.5Z" fill="white"/>
</svg>
