<svg width="150" height="32" viewBox="0 0 150 32" fill="none" xmlns="http://www.w3.org/2000/svg">
<path d="M32.6514 19.2609C34.5008 19.2609 36 17.7616 36 15.9122C36 14.0628 34.5008 12.5635 32.6514 12.5635" stroke="#39F4ED" stroke-width="2.75585"/>
<path d="M5.34863 19.2609C3.49922 19.2609 1.99997 17.7616 1.99997 15.9122C1.99997 14.0628 3.49922 12.5635 5.34863 12.5635" stroke="#39F4ED" stroke-width="2.75585"/>
<path fill-rule="evenodd" clip-rule="evenodd" d="M18.9999 31.5387C27.6301 31.5387 34.6263 24.5425 34.6263 15.9123C34.6263 7.28206 27.6301 0.285889 18.9999 0.285889C10.3697 0.285889 3.37354 7.28206 3.37354 15.9123C3.37354 24.5425 10.3697 31.5387 18.9999 31.5387ZM13.4166 20.2859C13.4461 20.2859 13.4758 20.2856 13.5056 20.2852C13.4478 20.7047 13.4181 21.1111 13.4181 21.4923C13.4181 24.5747 15.9168 27.0734 18.9992 27.0734C22.0815 27.0734 24.5803 24.5747 24.5803 21.4923C24.5803 21.1109 24.5335 20.7042 24.4456 20.2843C24.4918 20.2854 24.5378 20.2859 24.5833 20.2859C27.5748 20.2859 30 17.3757 30 13.7859C30 10.196 27.5748 7.28588 24.5833 7.28588C22.9819 7.28588 20.9221 8.306 19.3534 9.80472C17.7442 7.7614 15.2725 6.28588 13.4166 6.28588C10.4251 6.28588 7.99996 9.41989 7.99996 13.2859C7.99996 17.1519 10.4251 20.2859 13.4166 20.2859Z" fill="#39F4ED"/>
<path d="M36.6514 19.2609C38.5008 19.2609 40 17.7616 40 15.9122C40 14.0628 38.5008 12.5635 36.6514 12.5635" stroke="#FE2B54" stroke-width="2.75585"/>
<path d="M9.34863 19.2609C7.49922 19.2609 5.99997 17.7616 5.99997 15.9122C5.99997 14.0628 7.49922 12.5635 9.34863 12.5635" stroke="#FE2B54" stroke-width="2.75585"/>
<path fill-rule="evenodd" clip-rule="evenodd" d="M22.9999 31.5387C31.6301 31.5387 38.6263 24.5425 38.6263 15.9123C38.6263 7.28206 31.6301 0.285889 22.9999 0.285889C14.3697 0.285889 7.37354 7.28206 7.37354 15.9123C7.37354 24.5425 14.3697 31.5387 22.9999 31.5387ZM20.0479 9.78268C19.1351 9.42218 18.2214 9.21523 17.4194 9.21523C14.3371 9.21523 11.8383 11.714 11.8383 14.7963C11.8383 17.8787 14.3371 20.3774 17.4194 20.3774C17.444 20.3774 17.4686 20.3773 17.4934 20.3771C17.4436 20.7641 17.4181 21.139 17.4181 21.4923C17.4181 24.5747 19.9168 27.0734 22.9992 27.0734C26.0815 27.0734 28.5803 24.5747 28.5803 21.4923C28.5803 21.0831 28.5264 20.6448 28.4257 20.1924C31.5879 19.645 34 16.7612 34 13.2859C34 9.41989 31.0152 6.28588 27.3333 6.28588C25.0574 6.28588 22.029 7.7508 20.0479 9.78268Z" fill="#FE2B54"/>
<path d="M128.865 25.5522C127.486 25.5522 126.293 25.2592 125.287 24.6733C124.287 24.0814 123.515 23.2587 122.97 22.2052C122.426 21.1458 122.153 19.9177 122.153 18.5209C122.153 17.1123 122.426 15.8813 122.97 14.8277C123.515 13.7683 124.287 12.9456 125.287 12.3597C126.293 11.7679 127.486 11.4719 128.865 11.4719C130.244 11.4719 131.434 11.7679 132.434 12.3597C133.44 12.9456 134.215 13.7683 134.76 14.8277C135.304 15.8813 135.577 17.1123 135.577 18.5209C135.577 19.9177 135.304 21.1458 134.76 22.2052C134.215 23.2587 133.44 24.0814 132.434 24.6733C131.434 25.2592 130.244 25.5522 128.865 25.5522ZM128.883 22.6225C129.51 22.6225 130.034 22.4449 130.454 22.0898C130.874 21.7288 131.191 21.2375 131.404 20.6161C131.623 19.9947 131.733 19.2874 131.733 18.4943C131.733 17.7012 131.623 16.9939 131.404 16.3725C131.191 15.751 130.874 15.2598 130.454 14.8988C130.034 14.5377 129.51 14.3572 128.883 14.3572C128.249 14.3572 127.717 14.5377 127.285 14.8988C126.859 15.2598 126.536 15.751 126.317 16.3725C126.104 16.9939 125.997 17.7012 125.997 18.4943C125.997 19.2874 126.104 19.9947 126.317 20.6161C126.536 21.2375 126.859 21.7288 127.285 22.0898C127.717 22.4449 128.249 22.6225 128.883 22.6225Z" fill="#FE2B54"/>
<path d="M128.865 25.5522C127.486 25.5522 126.293 25.2592 125.287 24.6733C124.287 24.0814 123.515 23.2587 122.97 22.2052C122.426 21.1458 122.153 19.9177 122.153 18.5209C122.153 17.1123 122.426 15.8813 122.97 14.8277C123.515 13.7683 124.287 12.9456 125.287 12.3597C126.293 11.7679 127.486 11.4719 128.865 11.4719C130.244 11.4719 131.434 11.7679 132.434 12.3597C133.44 12.9456 134.215 13.7683 134.76 14.8277C135.304 15.8813 135.577 17.1123 135.577 18.5209C135.577 19.9177 135.304 21.1458 134.76 22.2052C134.215 23.2587 133.44 24.0814 132.434 24.6733C131.434 25.2592 130.244 25.5522 128.865 25.5522ZM128.883 22.6225C129.51 22.6225 130.034 22.4449 130.454 22.0898C130.874 21.7288 131.191 21.2375 131.404 20.6161C131.623 19.9947 131.733 19.2874 131.733 18.4943C131.733 17.7012 131.623 16.9939 131.404 16.3725C131.191 15.751 130.874 15.2598 130.454 14.8988C130.034 14.5377 129.51 14.3572 128.883 14.3572C128.249 14.3572 127.717 14.5377 127.285 14.8988C126.859 15.2598 126.536 15.751 126.317 16.3725C126.104 16.9939 125.997 17.7012 125.997 18.4943C125.997 19.2874 126.104 19.9947 126.317 20.6161C126.536 21.2375 126.859 21.7288 127.285 22.0898C127.717 22.4449 128.249 22.6225 128.883 22.6225Z" fill="#FE2B54"/>
<path d="M126.865 25.5522C125.486 25.5522 124.293 25.2592 123.287 24.6733C122.287 24.0814 121.515 23.2587 120.97 22.2052C120.426 21.1458 120.153 19.9177 120.153 18.5209C120.153 17.1123 120.426 15.8813 120.97 14.8277C121.515 13.7683 122.287 12.9456 123.287 12.3597C124.293 11.7679 125.486 11.4719 126.865 11.4719C128.244 11.4719 129.434 11.7679 130.434 12.3597C131.44 12.9456 132.215 13.7683 132.76 14.8277C133.304 15.8813 133.577 17.1123 133.577 18.5209C133.577 19.9177 133.304 21.1458 132.76 22.2052C132.215 23.2587 131.44 24.0814 130.434 24.6733C129.434 25.2592 128.244 25.5522 126.865 25.5522ZM126.883 22.6225C127.51 22.6225 128.034 22.4449 128.454 22.0898C128.874 21.7288 129.191 21.2375 129.404 20.6161C129.623 19.9947 129.733 19.2874 129.733 18.4943C129.733 17.7012 129.623 16.9939 129.404 16.3725C129.191 15.751 128.874 15.2598 128.454 14.8988C128.034 14.5377 127.51 14.3572 126.883 14.3572C126.249 14.3572 125.717 14.5377 125.285 14.8988C124.859 15.2598 124.536 15.751 124.317 16.3725C124.104 16.9939 123.997 17.7012 123.997 18.4943C123.997 19.2874 124.104 19.9947 124.317 20.6161C124.536 21.2375 124.859 21.7288 125.285 22.0898C125.717 22.4449 126.249 22.6225 126.883 22.6225Z" fill="#39F4ED"/>
<path d="M126.865 25.5522C125.486 25.5522 124.293 25.2592 123.287 24.6733C122.287 24.0814 121.515 23.2587 120.97 22.2052C120.426 21.1458 120.153 19.9177 120.153 18.5209C120.153 17.1123 120.426 15.8813 120.97 14.8277C121.515 13.7683 122.287 12.9456 123.287 12.3597C124.293 11.7679 125.486 11.4719 126.865 11.4719C128.244 11.4719 129.434 11.7679 130.434 12.3597C131.44 12.9456 132.215 13.7683 132.76 14.8277C133.304 15.8813 133.577 17.1123 133.577 18.5209C133.577 19.9177 133.304 21.1458 132.76 22.2052C132.215 23.2587 131.44 24.0814 130.434 24.6733C129.434 25.2592 128.244 25.5522 126.865 25.5522ZM126.883 22.6225C127.51 22.6225 128.034 22.4449 128.454 22.0898C128.874 21.7288 129.191 21.2375 129.404 20.6161C129.623 19.9947 129.733 19.2874 129.733 18.4943C129.733 17.7012 129.623 16.9939 129.404 16.3725C129.191 15.751 128.874 15.2598 128.454 14.8988C128.034 14.5377 127.51 14.3572 126.883 14.3572C126.249 14.3572 125.717 14.5377 125.285 14.8988C124.859 15.2598 124.536 15.751 124.317 16.3725C124.104 16.9939 123.997 17.7012 123.997 18.4943C123.997 19.2874 124.104 19.9947 124.317 20.6161C124.536 21.2375 124.859 21.7288 125.285 22.0898C125.717 22.4449 126.249 22.6225 126.883 22.6225Z" fill="#39F4ED"/>
<path d="M34.6514 18.975C36.5008 18.975 38 17.4757 38 15.6263C38 13.7769 36.5008 12.2776 34.6514 12.2776" stroke="white" stroke-width="2.75585"/>
<path d="M7.34863 18.975C5.49922 18.975 3.99997 17.4757 3.99997 15.6263C3.99997 13.7769 5.49922 12.2776 7.34863 12.2776" stroke="white" stroke-width="2.75585"/>
<path fill-rule="evenodd" clip-rule="evenodd" d="M20.9999 31.2528C29.6301 31.2528 36.6263 24.2566 36.6263 15.6264C36.6263 6.99617 29.6301 0 20.9999 0C12.3697 0 5.37354 6.99617 5.37354 15.6264C5.37354 24.2566 12.3697 31.2528 20.9999 31.2528ZM20.9995 11.2486C19.3623 9.87688 17.1354 8.92952 15.4194 8.92952C12.3371 8.92952 9.83834 11.4283 9.83834 14.5106C9.83834 17.593 12.3371 20.0917 15.4194 20.0917C15.444 20.0917 15.4686 20.0916 15.4934 20.0913C15.4436 20.4784 15.4181 20.8533 15.4181 21.2066C15.4181 24.289 17.9168 26.7877 20.9992 26.7877C24.0815 26.7877 26.5803 24.289 26.5803 21.2066C26.5803 20.8531 26.5401 20.4779 26.4642 20.0906C26.503 20.0912 26.5415 20.0915 26.5798 20.0915C29.6622 20.0915 32.1609 17.5928 32.1609 14.5104C32.1609 11.4281 29.6622 8.92934 26.5798 8.92934C24.8638 8.92934 22.6367 9.87679 20.9995 11.2486Z" fill="white"/>
<circle cx="15.9776" cy="15.0681" r="1.67433" fill="white"/>
<circle cx="26.0225" cy="15.0681" r="1.67433" fill="white"/>
<path d="M47.5801 7.104H52.3208L57.3279 19.3199H57.541L62.5481 7.104H67.2889V25.2858H63.5602V13.4517H63.4093L58.704 25.197H56.165L51.4597 13.4073H51.3088V25.2858H47.5801V7.104Z" fill="white"/>
<path d="M76.5995 25.5522C75.1968 25.5522 73.9894 25.2681 72.9774 24.6999C71.9712 24.1258 71.1959 23.3149 70.6514 22.2674C70.1069 21.2139 69.8346 19.968 69.8346 18.5298C69.8346 17.1271 70.1069 15.896 70.6514 14.8366C71.1959 13.7772 71.9623 12.9515 72.9507 12.3597C73.945 11.7678 75.111 11.4719 76.4486 11.4719C77.3482 11.4719 78.1857 11.6169 78.961 11.9069C79.7423 12.191 80.4229 12.6201 81.0029 13.1942C81.5889 13.7683 82.0446 14.4904 82.3701 15.3604C82.6956 16.2245 82.8584 17.2366 82.8584 18.3966V19.4353H71.3438V17.0916H79.2984C79.2984 16.5471 79.18 16.0647 78.9433 15.6445C78.7065 15.2243 78.378 14.8958 77.9578 14.659C77.5435 14.4164 77.0612 14.2951 76.5107 14.2951C75.9366 14.2951 75.4276 14.4282 74.9838 14.6946C74.5458 14.955 74.2025 15.3071 73.9539 15.751C73.7053 16.189 73.5781 16.6773 73.5722 17.2159V19.4442C73.5722 20.1189 73.6965 20.7019 73.945 21.1931C74.1995 21.6844 74.5576 22.0632 75.0193 22.3295C75.4809 22.5958 76.0284 22.729 76.6617 22.729C77.0819 22.729 77.4666 22.6698 77.8158 22.5514C78.165 22.4331 78.4639 22.2555 78.7124 22.0188C78.961 21.782 79.1504 21.492 79.2806 21.1487L82.7785 21.3796C82.6009 22.22 82.2369 22.9539 81.6865 23.5813C81.142 24.2027 80.4377 24.688 79.5736 25.0372C78.7154 25.3805 77.724 25.5522 76.5995 25.5522Z" fill="white"/>
<path d="M85.3264 25.2858V11.6495H88.9308V14.0554H89.0906C89.3747 13.2563 89.8482 12.626 90.5111 12.1644C91.174 11.7027 91.9671 11.4719 92.8904 11.4719C93.8255 11.4719 94.6215 11.7057 95.2785 12.1733C95.9355 12.6349 96.3734 13.2623 96.5924 14.0554H96.7345C97.0126 13.2741 97.5157 12.6497 98.2437 12.1821C98.9776 11.7086 99.8447 11.4719 100.845 11.4719C102.117 11.4719 103.15 11.8773 103.943 12.6882C104.742 13.4931 105.142 14.6354 105.142 16.115V25.2858H101.369V16.8608C101.369 16.1032 101.167 15.535 100.765 15.1562C100.363 14.7774 99.8595 14.588 99.2558 14.588C98.5692 14.588 98.0336 14.807 97.6489 15.245C97.2642 15.677 97.0718 16.2482 97.0718 16.9584V25.2858H93.4053V16.7809C93.4053 16.1121 93.2129 15.5794 92.8282 15.1828C92.4494 14.7863 91.9493 14.588 91.3279 14.588C90.9076 14.588 90.5289 14.6946 90.1915 14.9076C89.8601 15.1148 89.5967 15.4077 89.4014 15.7865C89.2061 16.1594 89.1084 16.5974 89.1084 17.1005V25.2858H85.3264Z" fill="white"/>
<path d="M106.36 10.2734V7.104H121.293V10.2734H115.726V25.2858H111.927V10.2734H106.36Z" fill="white"/>
<path d="M127.865 25.5522C126.486 25.5522 125.293 25.2592 124.287 24.6733C123.287 24.0814 122.514 23.2587 121.97 22.2052C121.425 21.1458 121.153 19.9177 121.153 18.5209C121.153 17.1123 121.425 15.8812 121.97 14.8277C122.514 13.7683 123.287 12.9456 124.287 12.3597C125.293 11.7678 126.486 11.4719 127.865 11.4719C129.244 11.4719 130.433 11.7678 131.434 12.3597C132.44 12.9456 133.215 13.7683 133.759 14.8277C134.304 15.8812 134.576 17.1123 134.576 18.5209C134.576 19.9177 134.304 21.1458 133.759 22.2052C133.215 23.2587 132.44 24.0814 131.434 24.6733C130.433 25.2592 129.244 25.5522 127.865 25.5522ZM127.882 22.6225C128.51 22.6225 129.034 22.4449 129.454 22.0898C129.874 21.7288 130.191 21.2375 130.404 20.6161C130.623 19.9946 130.732 19.2874 130.732 18.4943C130.732 17.7012 130.623 16.9939 130.404 16.3725C130.191 15.751 129.874 15.2598 129.454 14.8987C129.034 14.5377 128.51 14.3572 127.882 14.3572C127.249 14.3572 126.716 14.5377 126.284 14.8987C125.858 15.2598 125.536 15.751 125.317 16.3725C125.104 16.9939 124.997 17.7012 124.997 18.4943C124.997 19.2874 125.104 19.9946 125.317 20.6161C125.536 21.2375 125.858 21.7288 126.284 22.0898C126.716 22.4449 127.249 22.6225 127.882 22.6225Z" fill="white"/>
<path d="M140.462 21.3618L140.471 16.8252H141.022L145.389 11.6495H149.731L143.862 18.5032H142.966L140.462 21.3618ZM137.035 25.2858V7.104H140.817V25.2858H137.035ZM145.558 25.2858L141.545 19.3465L144.067 16.6743L149.988 25.2858H145.558Z" fill="white"/>
<path d="M127.865 25.5522C126.486 25.5522 125.293 25.2592 124.287 24.6733C123.287 24.0814 122.514 23.2587 121.97 22.2052C121.425 21.1458 121.153 19.9177 121.153 18.5209C121.153 17.1123 121.425 15.8812 121.97 14.8277C122.514 13.7683 123.287 12.9456 124.287 12.3597C125.293 11.7678 126.486 11.4719 127.865 11.4719C129.244 11.4719 130.433 11.7678 131.434 12.3597C132.44 12.9456 133.215 13.7683 133.759 14.8277C134.304 15.8812 134.576 17.1123 134.576 18.5209C134.576 19.9177 134.304 21.1458 133.759 22.2052C133.215 23.2587 132.44 24.0814 131.434 24.6733C130.433 25.2592 129.244 25.5522 127.865 25.5522ZM127.882 22.6225C128.51 22.6225 129.034 22.4449 129.454 22.0898C129.874 21.7288 130.191 21.2375 130.404 20.6161C130.623 19.9946 130.732 19.2874 130.732 18.4943C130.732 17.7012 130.623 16.9939 130.404 16.3725C130.191 15.751 129.874 15.2598 129.454 14.8987C129.034 14.5377 128.51 14.3572 127.882 14.3572C127.249 14.3572 126.716 14.5377 126.284 14.8987C125.858 15.2598 125.536 15.751 125.317 16.3725C125.104 16.9939 124.997 17.7012 124.997 18.4943C124.997 19.2874 125.104 19.9946 125.317 20.6161C125.536 21.2375 125.858 21.7288 126.284 22.0898C126.716 22.4449 127.249 22.6225 127.882 22.6225Z" fill="white"/>
</svg>
