<svg width="12" height="13" viewBox="0 0 12 13" fill="none" xmlns="http://www.w3.org/2000/svg">
<path fill-rule="evenodd" clip-rule="evenodd" d="M4.6409 10.1794V3.28811L10.1256 2.33885V8.79205H8.50829C7.58168 8.79205 6.7504 9.33158 6.7504 10.1794C6.7504 11.0273 7.58168 11.5669 8.50829 11.5669H9.63342C10.56 11.5669 11.3913 11.0273 11.3913 10.1794V9.44925V1.56308C11.3913 1.15698 11.0401 0.848074 10.6544 0.914835L3.90401 2.08315C3.59886 2.13597 3.3752 2.41014 3.3752 2.7314V9.52224H1.75791C0.831278 9.52224 0 10.0618 0 10.9097C0 11.7575 0.831278 12.297 1.75791 12.297H2.88299C3.80962 12.297 4.6409 11.7575 4.6409 10.9097V10.6175V10.1794Z" fill="white"/>
</svg>
